# xmcd
#
# Track frame offsets:
#	150
#	26958
#	66859
#	91077
#	132466
#	165528
#	199197
#	214363
#	235710
#
# Disc length: 3464 seconds
#
# Revision: 0
# Processed by: cddbd v1.4PL0 Copyright (c) Steve Scherf et al.
# Submitted via: dBpowerAMP V4.0
#
DISCID=7f0d8609
DTITLE=Grateful Dead - Barton Hall - May 8th 1977
DYEAR=1977
DGENRE=Blues
TTITLE0=New Minglewood Blues
TTITLE1=Loser
TTITLE2=El Paso
TTITLE3=They Love Each Other
TTITLE4=Jack Straw
TTITLE5=Deal
TTITLE6=Lazy Lightning
TTITLE7=Supplication
TTITLE8=Brown Eyed Woman
EXTD=
EXTT0=
EXTT1=
EXTT2=
EXTT3=
EXTT4=
EXTT5=
EXTT6=
EXTT7=
EXTT8=
PLAYORDER=
